<svg xmlns="http://www.w3.org/2000/svg" viewBox="3847.519 45.184 1681.903 725.583">
  <defs>
    <style>
      .cls-1, .cls-2 {
        fill: #a29b70;
      }

      .cls-2 {
        opacity: 0.109;
      }

      .cls-3 {
        fill: #a9a29a;
      }
    </style>
  </defs>
  <g id="Group_10780" data-name="Group 10780" transform="translate(3743)">
    <g id="Group_5" data-name="Group 5" transform="translate(104.518 296.643)">
      <g id="Group_4" data-name="Group 4">
        <path id="Path_1731" data-name="Path 1731" class="cls-1" d="M116.5,319.5a61.255,61.255,0,0,0-2.2-19.5c-.6.3-1.3.5-1.9.8A27.434,27.434,0,0,0,127.2,315c.2-.7.4-1.4.6-2-7.3-1.8-14.5-3.3-22-1.9.3.6.5,1.3.8,1.9a195.477,195.477,0,0,0,19.6-14.2c-.6-.3-1.2-.7-1.8-1a52.341,52.341,0,0,1-10.8,17c-.9,1,.6,2.5,1.5,1.5a53.576,53.576,0,0,0,11.4-17.9c.4-1.1-1-1.6-1.8-1a187.5,187.5,0,0,1-19.2,13.9,1.048,1.048,0,0,0,.8,1.9c7.1-1.3,14,.2,20.9,1.9a1.046,1.046,0,0,0,.6-2,24.608,24.608,0,0,1-13.5-13.2c-.5-1.1-2.2-.3-1.9.8a63.751,63.751,0,0,1,2.1,19c-.1,1.2,2,1.1,2-.2Z" transform="translate(-105.018 -297.143)"/>
      </g>
    </g>
    <g id="Group_7" data-name="Group 7" transform="translate(116.948 108.6)">
      <g id="Group_6" data-name="Group 6">
        <path id="Path_1732" data-name="Path 1732" class="cls-1" d="M126.5,130.5a109.725,109.725,0,0,0-.6-16.2c-.6.2-1.2.5-1.8.7a78.63,78.63,0,0,1,7.9,9.4l.6-1.5a46.944,46.944,0,0,1-14,.2c.1.6.2,1.3.3,1.9,6.3-4.7,12.6-9.3,18.8-14l-1.4-1.4c-3.6,5.8-7.2,11.6-10.8,17.3a1.056,1.056,0,0,0,1.8,1.1c3.6-5.8,7.2-11.6,10.8-17.3.5-.8-.6-2.1-1.4-1.4-6.3,4.7-12.6,9.3-18.8,14-.6.5-.7,1.8.3,1.9a47.815,47.815,0,0,0,15.1-.2,1.01,1.01,0,0,0,.6-1.5,78.147,78.147,0,0,0-8.3-9.8c-.6-.6-1.9-.2-1.8.7a87.847,87.847,0,0,1,.6,16.2c0,1.2,2.1,1.2,2.1-.1Z" transform="translate(-117.448 -109.1)"/>
      </g>
    </g>
    <g id="Group_9" data-name="Group 9" transform="translate(237.381 232.29)">
      <g id="Group_8" data-name="Group 8">
        <path id="Path_1733" data-name="Path 1733" class="cls-1" d="M252.3,251.7a38.338,38.338,0,0,0-1.4-18.1c-.6.3-1.2.7-1.8,1,3.6,4.4,7.2,8.9,10.8,13.3.2-.6.5-1.2.7-1.8-7.2-.8-14.4-1.7-21.7-2.5a14.621,14.621,0,0,1,.5,2,63.768,63.768,0,0,1,20.7-7.2c-.3-.6-.7-1.2-1-1.8a74.516,74.516,0,0,0-9.2,12.5,1.056,1.056,0,0,0,1.8,1.1,80.124,80.124,0,0,1,8.9-12.1,1.1,1.1,0,0,0-1-1.8,68.557,68.557,0,0,0-21.2,7.4c-1,.6-.4,1.8.5,2,7.2.8,14.4,1.7,21.7,2.5,1,.1,1.2-1.2.7-1.8-3.6-4.4-7.2-8.9-10.8-13.3a1.086,1.086,0,0,0-1.8,1,35.914,35.914,0,0,1,1.4,16.9c-.1,1.5,2,2.1,2.2.7Z" transform="translate(-237.881 -232.79)"/>
      </g>
    </g>
    <g id="Group_11" data-name="Group 11" transform="translate(305.477 353.937)">
      <g id="Group_10" data-name="Group 10">
        <path id="Path_1734" data-name="Path 1734" class="cls-1" d="M318.5,355.4c0,4.1-.1,8.3-.1,12.4a1.074,1.074,0,0,0,2.1.3c1-4.3,3.8-7.1,7.4-9.4.8-.5.6-2.1-.5-2a99.438,99.438,0,0,1-20.4.5c-1.2-.1-1.4,1.8-.3,2.1a180.218,180.218,0,0,1,23.5,7.9,1.043,1.043,0,0,0,1.3-1.6c-4.2-4.9-9.6-8.1-15.6-10.5-1.3-.5-1.8,1.5-.6,2A36.839,36.839,0,0,1,330,367a18.253,18.253,0,0,1,1.3-1.6,169.319,169.319,0,0,0-24-8.1l-.3,2.1a107.046,107.046,0,0,0,20.4-.5,14.618,14.618,0,0,1-.5-2c-4,2.6-7.3,5.9-8.4,10.7l2.1.3c0-4.1.1-8.3.1-12.4-.1-1.4-2.2-1.4-2.2-.1Z" transform="translate(-305.977 -354.437)"/>
      </g>
    </g>
    <g id="Group_13" data-name="Group 13" transform="translate(297.299 132.533)">
      <g id="Group_12" data-name="Group 12">
        <path id="Path_1735" data-name="Path 1735" class="cls-1" d="M309.5,152.5c0-5.6-.1-11.1-.1-16.7a14.621,14.621,0,0,1-2,.5l6,9.9c.3-.5.6-1.1.9-1.6-5.2-.1-10.3-.2-15.5-.4a14.619,14.619,0,0,1,.5,2,126.215,126.215,0,0,1,20.9-11c-.3-.6-.7-1.2-1-1.8a42.374,42.374,0,0,0-9.8,16.1c-.4,1.3,1.6,1.8,2,.6a39.814,39.814,0,0,1,9.3-15.2c.7-.7,0-2.2-1-1.8a132,132,0,0,0-21.4,11.2,1.089,1.089,0,0,0,.5,2c5.2.1,10.3.2,15.5.4a1.069,1.069,0,0,0,.9-1.6l-6-9.9a1.089,1.089,0,0,0-2,.5c0,5.6.1,11.1.1,16.7.2,1.5,2.3,1.5,2.2.1Z" transform="translate(-297.799 -133.033)"/>
      </g>
    </g>
    <g id="Group_15" data-name="Group 15" transform="translate(480.508 72.529)">
      <g id="Group_14" data-name="Group 14">
        <path id="Path_1736" data-name="Path 1736" class="cls-1" d="M487.2,88.7c.9-4.8,1.9-9.6,2.8-14.4-.6.1-1.3.2-1.9.3,2.8,3.7,5.5,7.4,8.3,11l1.2-1.5c-5.1-.7-10.3-1.5-15.4-2.2.1.6.2,1.3.3,1.9,5-2.9,9.9-5.8,14.9-8.8L496,73.6a79.427,79.427,0,0,1-9.1,13.2c-.9,1,.6,2.5,1.5,1.5a81.059,81.059,0,0,0,9.4-13.7c.5-.9-.5-2-1.4-1.4-5,2.9-9.9,5.8-14.9,8.8-.7.4-.7,1.8.3,1.9,5.1.7,10.3,1.5,15.4,2.2.8.1,1.8-.7,1.2-1.5-2.8-3.7-5.5-7.4-8.3-11-.5-.6-1.7-.7-1.9.3-.9,4.8-1.9,9.6-2.8,14.4-.5,1.2,1.5,1.7,1.8.4Z" transform="translate(-481.008 -73.029)"/>
      </g>
    </g>
    <g id="Group_3526" data-name="Group 3526" transform="translate(181.177 426.655)">
      <g id="Group_3525" data-name="Group 3525">
        <path id="Path_3492" data-name="Path 3492" class="cls-1" d="M196.4,457.5c.2-9.9.4-19.7.6-29.6a14.619,14.619,0,0,1-2,.5c3.2,6.6,6.4,13.1,9.6,19.7l1.2-1.5a55.584,55.584,0,0,0-23.1-4.4l.3,2.1c7.4-2.4,14.8-4.8,22.3-7.2l-1.2-1.5c-2.5,5.2-5,10.3-7.5,15.5-.6,1.2,1.2,2.3,1.8,1.1,2.5-5.2,5-10.3,7.5-15.5a1.025,1.025,0,0,0-1.2-1.5c-7.4,2.4-14.8,4.8-22.3,7.2a1.08,1.08,0,0,0,.3,2.1,54.887,54.887,0,0,1,22.6,4.4c.9.4,1.5-.8,1.2-1.5-3.2-6.6-6.4-13.1-9.6-19.7a1.077,1.077,0,0,0-2,.5c-.2,9.9-.4,19.7-.6,29.6,0,1,2.1,1,2.1-.3Z" transform="translate(-181.677 -427.155)"/>
      </g>
    </g>
    <g id="Group_3528" data-name="Group 3528" transform="translate(284.683 543.43)">
      <g id="Group_3527" data-name="Group 3527">
        <path id="Path_3493" data-name="Path 3493" class="cls-1" d="M298.4,571.5a132.356,132.356,0,0,0-1-26.7c-.6.3-1.3.5-1.9.8,3.5,7.5,7,15.1,10.6,22.6l1.2-1.5c-7-2.9-13.9-5.8-20.9-8.7v2a111.365,111.365,0,0,1,22.3-1.9c-.2-.6-.5-1.2-.7-1.8-3.7,3.5-7.5,7-11.2,10.5-1,.9.5,2.4,1.5,1.5,3.7-3.5,7.5-7,11.2-10.5a1.073,1.073,0,0,0-.7-1.8,110.111,110.111,0,0,0-22.9,1.9c-1.1.2-.8,1.7,0,2,7,2.9,13.9,5.8,20.9,8.7.9.4,1.5-.8,1.2-1.5-3.5-7.5-7-15.1-10.6-22.6-.5-1.2-2.1-.3-1.9.8a134.906,134.906,0,0,1,1,26.2c-.2,1.3,1.9,1.3,1.9,0Z" transform="translate(-285.183 -543.93)"/>
      </g>
    </g>
    <g id="Group_3530" data-name="Group 3530" transform="translate(122.799 574.747)">
      <g id="Group_3529" data-name="Group 3529">
        <path id="Path_3494" data-name="Path 3494" class="cls-1" d="M136.5,601.5a69.113,69.113,0,0,0-1.8-23.1l-1.3,1.3A21.186,21.186,0,0,1,145.6,593l1.3-1.3c-7.4-1.6-14.9-3.2-22.3-4.8.1.6.2,1.3.3,1.9l25.5-11.7a18.249,18.249,0,0,0-1.3-1.6c-5.4,6.4-10.8,12.9-16.2,19.3-.9,1,.6,2.5,1.5,1.5,5.4-6.4,10.8-12.9,16.2-19.3a1.039,1.039,0,0,0-1.3-1.6l-25.5,11.7a1.042,1.042,0,0,0,.3,1.9c7.4,1.6,14.9,3.2,22.3,4.8a1.09,1.09,0,0,0,1.3-1.3,23.263,23.263,0,0,0-13.6-14.8c-.8-.3-1.5.6-1.3,1.3a68.74,68.74,0,0,1,1.7,22.6c-.2,1.2,1.9,1.2,2-.1Z" transform="translate(-123.299 -575.247)"/>
      </g>
    </g>
    <g id="Group_3532" data-name="Group 3532" transform="translate(455.213 434.989)">
      <g id="Group_3531" data-name="Group 3531">
        <path id="Path_3495" data-name="Path 3495" class="cls-1" d="M467.3,465c-2.1-9.7-4.1-19.3-6.2-29-.7.2-1.3.4-2,.6a48.282,48.282,0,0,0,14.6,19.7,18.257,18.257,0,0,1,1.3-1.6,38.046,38.046,0,0,0-18.4-4.3,14.618,14.618,0,0,1,.5,2c5.1-3.8,10.1-7.6,15.2-11.5l-1.5-.6a14.646,14.646,0,0,1-5.9,14.1c-1.1.8,0,2.6,1.1,1.8a17.119,17.119,0,0,0,6.9-16.5,1.01,1.01,0,0,0-1.5-.6c-5.1,3.8-10.1,7.6-15.2,11.5a1.085,1.085,0,0,0,.5,2,36.177,36.177,0,0,1,17.4,4c1,.5,2.3-.9,1.3-1.6a46.1,46.1,0,0,1-14.1-18.8,1.044,1.044,0,0,0-2,.6c2.1,9.7,4.1,19.3,6.2,29,.1,1.1,2.1.6,1.8-.8Z" transform="translate(-455.713 -435.489)"/>
      </g>
    </g>
    <g id="Group_3538" data-name="Group 3538" transform="translate(1355.6 371.7)">
      <g id="Group_3537" data-name="Group 3537">
        <g id="Group_3536" data-name="Group 3536">
          <g id="Group_3535" data-name="Group 3535">
            <path id="Path_3496" data-name="Path 3496" class="cls-2" d="M1364.5,380.1c.6,0-.5-1-.5-1-.4-.4-1.6-1.9-2.2-1.9s.5,1,.5,1C1362.6,378.7,1363.8,380.1,1364.5,380.1Z" transform="translate(-1356.1 -372.2)"/>
            <path id="Path_3497" data-name="Path 3497" class="cls-2" d="M1364.8,383c.5,0-.8-2-1.3-2C1363,380.9,1364.4,383,1364.8,383Z" transform="translate(-1356.1 -372.2)"/>
            <path id="Path_3498" data-name="Path 3498" class="cls-2" d="M1363,378.4a1.555,1.555,0,0,0-.6-.8c-.9-.8-1.8-1.7-2.7-2.5-.6-.5-2.6-2.9-3.6-2.9a1.555,1.555,0,0,0,.6.8c.9.8,1.8,1.7,2.7,2.5C1359.9,376,1361.9,378.4,1363,378.4Z" transform="translate(-1356.1 -372.2)"/>
            <path id="Path_3499" data-name="Path 3499" class="cls-2" d="M1363.1,379.8a.755.755,0,0,0-.4-.7c-.6-.8-1.3-1.5-1.9-2.2-.4-.4-1.9-2.6-2.7-2.6a.755.755,0,0,0,.4.7c.6.8,1.3,1.5,1.9,2.2C1360.8,377.6,1362.3,379.8,1363.1,379.8Z" transform="translate(-1356.1 -372.2)"/>
            <path id="Path_3500" data-name="Path 3500" class="cls-2" d="M1364.9,379.8c.5,0-.3-.7-.3-.7-.3-.3-1.1-1.1-1.5-1.1-.5,0,.3.7.3.7C1363.7,379,1364.4,379.8,1364.9,379.8Z" transform="translate(-1356.1 -372.2)"/>
            <path id="Path_3501" data-name="Path 3501" class="cls-2" d="M1362.9,377.9a.675.675,0,0,0-.4-.6c-.7-.6-1.4-1.3-2.1-1.9-.6-.5-2-2.1-2.9-2.1a.675.675,0,0,0,.4.6c.7.6,1.4,1.3,2.1,1.9C1360.5,376.3,1362,377.9,1362.9,377.9Z" transform="translate(-1356.1 -372.2)"/>
            <path id="Path_3502" data-name="Path 3502" class="cls-2" d="M1363.5,380.9a1.234,1.234,0,0,0-.4-.8c-.7-.9-1.4-1.8-2.1-2.6-.3-.4-2.1-3.1-2.9-3.1a1.234,1.234,0,0,0,.4.8c.7.9,1.4,1.8,2.1,2.6C1361,378.2,1362.7,380.9,1363.5,380.9Z" transform="translate(-1356.1 -372.2)"/>
            <path id="Path_3503" data-name="Path 3503" class="cls-2" d="M1364.2,378.8c.4,0-.9-1.4-1.3-1.4C1362.4,377.5,1363.7,378.8,1364.2,378.8Z" transform="translate(-1356.1 -372.2)"/>
            <path id="Path_3504" data-name="Path 3504" class="cls-2" d="M1363.3,379.5a1.456,1.456,0,0,0-.6-.9,38.344,38.344,0,0,0-2.8-2.9c-.9-1-1.9-1.9-2.9-2.9a.552.552,0,1,0-.3.3,38.332,38.332,0,0,0,2.8,2.9c.9,1,1.9,1.9,2.9,2.9A3.49,3.49,0,0,0,1363.3,379.5Z" transform="translate(-1356.1 -372.2)"/>
            <path id="Path_3505" data-name="Path 3505" class="cls-2" d="M1363.2,378.9c.6,0-.6-1-.6-1-.4-.4-1.8-2.1-2.5-2.1-.6,0,.6,1,.6,1C1361.1,377.2,1362.5,378.9,1363.2,378.9Z" transform="translate(-1356.1 -372.2)"/>
            <path id="Path_3506" data-name="Path 3506" class="cls-2" d="M1364.8,378.8c.4,0-.8-1.2-1.2-1.2S1364.4,378.8,1364.8,378.8Z" transform="translate(-1356.1 -372.2)"/>
            <path id="Path_3507" data-name="Path 3507" class="cls-2" d="M1363,380a1.382,1.382,0,0,0-.5-.9c-.7-.9-1.5-1.9-2.3-2.8-.4-.4-2.3-3.3-3.2-3.3a1.382,1.382,0,0,0,.5.9c.7.9,1.5,1.9,2.3,2.8C1360.2,377.2,1362.1,380,1363,380Z" transform="translate(-1356.1 -372.2)"/>
          </g>
        </g>
      </g>
    </g>
    <g id="Group_3540" data-name="Group 3540" transform="translate(1381.214 303.989)">
      <g id="Group_3539" data-name="Group 3539">
        <path id="Path_3508" data-name="Path 3508" class="cls-1" d="M1393.3,334c-2.1-9.7-4.1-19.3-6.2-29-.7.2-1.4.4-2,.6a48.281,48.281,0,0,0,14.6,19.7,18.264,18.264,0,0,1,1.3-1.6,38.047,38.047,0,0,0-18.4-4.3,14.623,14.623,0,0,1,.5,2c5.1-3.8,10.1-7.6,15.2-11.5l-1.5-.6a14.646,14.646,0,0,1-5.9,14.1c-1.1.8,0,2.6,1.1,1.8a17.119,17.119,0,0,0,6.9-16.5,1.01,1.01,0,0,0-1.5-.6c-5.1,3.8-10.1,7.6-15.2,11.5a1.085,1.085,0,0,0,.5,2,36.178,36.178,0,0,1,17.4,4c1,.5,2.3-.9,1.3-1.6a46.1,46.1,0,0,1-14.1-18.8,1.044,1.044,0,0,0-2,.6c2.1,9.7,4.1,19.3,6.2,29,.1,1.1,2.1.6,1.8-.8Z" transform="translate(-1381.714 -304.489)"/>
      </g>
    </g>
    <g id="Group_3542" data-name="Group 3542" transform="translate(1462.55 572.444)">
      <g id="Group_3541" data-name="Group 3541">
        <path id="Path_3509" data-name="Path 3509" class="cls-1" d="M1480.4,597.5c.2-7.8.3-15.7.5-23.5l-2.1.3a57.149,57.149,0,0,1,3.4,17.3c.4-.3.9-.7,1.3-1-6.4-1.5-12.8-2.9-19.2-4.4v2c7.1-1.3,14.2-2.6,21.3-3.8-.4-.3-.9-.7-1.3-1,.1,2.1.2,4.1.3,6.2.1,1.3,2.2,1.4,2.1,0-.1-2.1-.2-4.1-.3-6.2a1.044,1.044,0,0,0-1.3-1c-7.1,1.3-14.2,2.6-21.3,3.8a1.042,1.042,0,0,0,0,2c6.4,1.5,12.8,2.9,19.2,4.4.6.1,1.4-.3,1.3-1a57.366,57.366,0,0,0-3.4-17.9,1.074,1.074,0,0,0-2.1.3c-.2,7.8-.3,15.7-.5,23.5a1.053,1.053,0,0,0,2.1,0Z" transform="translate(-1463.05 -572.944)"/>
      </g>
    </g>
    <g id="Group_3544" data-name="Group 3544" transform="translate(1598.18 285.441)">
      <g id="Group_3543" data-name="Group 3543">
        <path id="Path_3510" data-name="Path 3510" class="cls-1" d="M1610.2,311.3c-2-8.2-4-16.3-5.9-24.5l-1.3,1.3c3.7,1.5,10,6.1,9.7,10.8-.4,5.7-9.6,1.4-12.3-.3.1.5.1,1.1.2,1.6a23.52,23.52,0,0,1,4.1-3.6c.4-.2.8-.5,1.2-.7,2.8-2.1,3.5-1.1,2.4,2.8a1.056,1.056,0,0,0,1.8,1.1,6.417,6.417,0,0,0,.2-6.8,1.147,1.147,0,0,0-1.2-.5,21.937,21.937,0,0,0-10.1,6.3.985.985,0,0,0,.2,1.6,18.985,18.985,0,0,0,15,2.7,1.188,1.188,0,0,0,.8-1,17.965,17.965,0,0,0-11.7-16.1c-.8-.3-1.5.6-1.3,1.3,2,8.2,4,16.3,5.9,24.5.6,1.4,2.6.8,2.3-.5Z" transform="translate(-1598.68 -285.941)"/>
      </g>
    </g>
    <g id="Group_3546" data-name="Group 3546" transform="translate(1269.113 508.751)">
      <g id="Group_3545" data-name="Group 3545">
        <path id="Path_3511" data-name="Path 3511" class="cls-1" d="M1277.5,530.4a83.9,83.9,0,0,0,1.7-19.4h-2.1a33.629,33.629,0,0,0,4.2,15.2l1.2-1.5a38.208,38.208,0,0,0-11.7-.4,14.622,14.622,0,0,1,.5,2c7.1-4.8,13.9-9.9,20.5-15.3l-1.5-1.5a78.55,78.55,0,0,0-11.9,14.5c-.7,1.1,1.1,2.2,1.8,1.1a74.619,74.619,0,0,1,11.5-14.1c1-1-.5-2.3-1.5-1.5a242.767,242.767,0,0,1-20.1,14.9c-.8.5-.6,2.1.5,2a34.411,34.411,0,0,1,11.1.3,1.038,1.038,0,0,0,1.2-1.5A29.385,29.385,0,0,1,1279,511a1.051,1.051,0,0,0-2.1,0,78.8,78.8,0,0,1-1.6,18.8c-.1,1.3,1.9,1.9,2.2.6Z" transform="translate(-1269.613 -509.251)"/>
      </g>
    </g>
    <g id="Group_3548" data-name="Group 3548" transform="translate(1688.355 533.468)">
      <g id="Group_3547" data-name="Group 3547">
        <path id="Path_3512" data-name="Path 3512" class="cls-1" d="M1696.8,559l3.9-23.7-2.1-.3a68.779,68.779,0,0,0,3.4,17.4l1.3-1.3c-4.4-1.8-8.6-3.7-12.9-5.8a14.623,14.623,0,0,0-.5,2c7.2-.1,14-3.9,20.6-6.6-.3-.6-.7-1.2-1-1.8-3.8,4.6-7.6,9.1-11.4,13.7-.9,1,.6,2.5,1.5,1.5,3.8-4.6,7.6-9.1,11.4-13.7.6-.7.1-2.2-1-1.8-6.3,2.6-13.1,6.4-20.1,6.5a1.074,1.074,0,0,0-.5,2c4.4,2.2,8.8,4.2,13.4,6,.7.3,1.5-.6,1.3-1.3a61.046,61.046,0,0,1-3.3-16.8c-.1-1.1-1.9-1.5-2.1-.3l-3.9,23.7c-.3,1.4,1.7,2,2,.6Z" transform="translate(-1688.855 -533.968)"/>
      </g>
    </g>
    <g id="Group_3550" data-name="Group 3550" transform="translate(1728.268 125.95)">
      <g id="Group_3549" data-name="Group 3549">
        <path id="Path_3513" data-name="Path 3513" class="cls-1" d="M1736,153c2-8.5,4.2-17,6.5-25.5h-2c1.6,6.3,3,12.6,2.2,19.2a14.621,14.621,0,0,1,2-.5,23.922,23.922,0,0,0-14.6-10.7l-.3,2.1a101.153,101.153,0,0,0,18-3.8l-1.2-1.5c-4.2,5.7-8.3,11.4-12.2,17.3-.8,1.1,1.1,2.2,1.8,1.1,3.9-5.9,8-11.6,12.2-17.3.6-.7-.4-1.8-1.2-1.5a94.6,94.6,0,0,1-17.4,3.7,1.082,1.082,0,0,0-.3,2.1,22.167,22.167,0,0,1,13.4,9.8,1.094,1.094,0,0,0,2-.5c.8-6.8-.6-13.2-2.3-19.8a1.042,1.042,0,0,0-2,0c-2.4,8.4-4.5,16.9-6.5,25.5-.4,1.1,1.6,1.6,1.9.3Z" transform="translate(-1728.768 -126.45)"/>
      </g>
    </g>
    <g id="Group_3552" data-name="Group 3552" transform="translate(1242.599 155.874)">
      <g id="Group_3551" data-name="Group 3551">
        <path id="Path_3514" data-name="Path 3514" class="cls-1" d="M1251.4,179.5a131,131,0,0,0-3.1-22.5c-.6.3-1.3.5-1.9.8,2.4,4.8,4.8,9.7,7.2,14.5l1.2-1.5c-3.5-.9-7-1.7-10.5-2.6.1.6.2,1.3.3,1.9,4.9-2.6,9.7-5.2,14.6-7.9l-1.4-1.4c-2.9,5.1-5.7,10.3-8.6,15.4-.7,1.2,1.2,2.2,1.8,1.1,2.9-5.1,5.7-10.3,8.6-15.4a1.031,1.031,0,0,0-1.4-1.4c-4.9,2.6-9.7,5.2-14.6,7.9a1.042,1.042,0,0,0,.3,1.9c3.5.9,7,1.7,10.5,2.6a1.057,1.057,0,0,0,1.2-1.5c-2.4-4.8-4.8-9.7-7.2-14.5-.5-1.1-2.2-.3-1.9.8a136.889,136.889,0,0,1,3,22c-.2,1.1,1.9,1.1,1.9-.2Z" transform="translate(-1243.099 -156.374)"/>
      </g>
    </g>
    <g id="Group_3554" data-name="Group 3554" transform="translate(1764.65 753.767)">
      <g id="Group_3553" data-name="Group 3553">
        <path id="Path_3515" data-name="Path 3515" class="cls-1" d="M1775.6,770.5c.7-5,1.5-10,2.2-15-.6.1-1.3.2-1.9.3,1.8,3.6,3.6,7.1,5.5,10.7l1.2-1.5a117.818,117.818,0,0,0-16.3-5v2c3-.8,6-1.6,9.1-2.3,1.3-.3,8.5-3,9.5-1.6.1-.5.3-1,.4-1.4a98.442,98.442,0,0,0-14,12.6c-.9,1,.6,2.5,1.5,1.5a93.856,93.856,0,0,1,13.6-12.3,1.107,1.107,0,0,0,.4-1.4c-1.4-2.2-3.6-1.5-5.8-1-5,1.2-10.1,2.6-15.1,3.9a1.041,1.041,0,0,0,0,2,128.119,128.119,0,0,1,16.3,5c.9.4,1.6-.8,1.2-1.5-1.8-3.6-3.6-7.1-5.5-10.7a1.018,1.018,0,0,0-1.9.3c-.7,5-1.5,10-2.2,15a.923.923,0,1,0,1.8.4Z" transform="translate(-1765.15 -754.267)"/>
      </g>
    </g>
    <g id="Group_3556" data-name="Group 3556" transform="translate(1239.644 730.868)">
      <g id="Group_3555" data-name="Group 3555">
        <path id="Path_3516" data-name="Path 3516" class="cls-1" d="M1248.6,749.5a98.432,98.432,0,0,1,3.1-16.9l-2.1-.3a52.22,52.22,0,0,0,3.2,12.8l1.5-1.2a26.148,26.148,0,0,0-13.1-3.7l.3,2.1c2.5-.9,4.9-1.7,7.4-2.5,1.9-.6,4.9-2.1,6.9-2.1,1.7,0,1.1.2.6,1.4a16.57,16.57,0,0,1-2.3,3.1c-1.5,2.1-3.1,4.1-4.6,6.2-.8,1.1,1,2.1,1.8,1.1l6.9-9.3c.9-1.3,2.3-3.1.6-4.4-1.6-1.2-4.6.2-6.1.6-4,1.2-7.9,2.5-11.8,3.9a1.073,1.073,0,0,0,.3,2.1,22.022,22.022,0,0,1,12,3.4c.7.4,1.9-.3,1.5-1.2a52.05,52.05,0,0,1-3.1-12.2,1.082,1.082,0,0,0-2.1-.3,93.343,93.343,0,0,0-3.1,17.4c0,1.3,2.1,1.3,2.2,0Z" transform="translate(-1240.144 -731.368)"/>
      </g>
    </g>
    <g id="Group_3558" data-name="Group 3558" transform="translate(277.648 729.858)">
      <g id="Group_3557" data-name="Group 3557">
        <path id="Path_3517" data-name="Path 3517" class="cls-1" d="M288.5,746.8a80.758,80.758,0,0,1,1-14.7c-.6.2-1.2.3-1.8.5,2.9,2.9,5.8,5.7,8.7,8.6.2-.6.5-1.2.7-1.8a61.98,61.98,0,0,1-17.7-1.3v2c7-2.6,14.1-5.1,21.1-7.7-.3-.6-.7-1.2-1-1.8a70.026,70.026,0,0,0-13.8,18.2c-.6,1.2,1.2,2.3,1.8,1.1A72.868,72.868,0,0,1,301,732.2a1.086,1.086,0,0,0-1-1.8c-7,2.6-14.1,5.1-21.1,7.7-.9.3-1.1,1.8,0,2a61.907,61.907,0,0,0,18.2,1.3,1.048,1.048,0,0,0,.7-1.8c-2.9-2.9-5.8-5.7-8.7-8.6a1.122,1.122,0,0,0-1.8.5,86.411,86.411,0,0,0-1.1,15.2c.3,1.5,2.4,1.5,2.3.1Z" transform="translate(-278.148 -730.358)"/>
      </g>
    </g>
    <g id="Group_3560" data-name="Group 3560" transform="translate(546.899 625.036)">
      <g id="Group_3559" data-name="Group 3559">
        <path id="Path_3518" data-name="Path 3518" class="cls-1" d="M554.1,647.5c.5-7,1-14.1,1.5-21.1l-2.1.3a129.347,129.347,0,0,1,4.1,17.4c.6-.3,1.3-.5,1.9-.8a14.238,14.238,0,0,0-11.1-7,14.615,14.615,0,0,1,.5,2,92.443,92.443,0,0,1,15-8.4l-1.4-1.4a110.179,110.179,0,0,0-9.6,17.1c-.5,1.2,1.3,2.3,1.8,1.1a110.186,110.186,0,0,1,9.6-17.1c.7-1-.6-1.8-1.4-1.4a99.577,99.577,0,0,0-15,8.4,1.094,1.094,0,0,0,.5,2,12.052,12.052,0,0,1,9.3,5.9,1.042,1.042,0,0,0,1.9-.8,129.347,129.347,0,0,0-4.1-17.4,1.074,1.074,0,0,0-2.1.3c-.5,7-1,14.1-1.5,21.1,0,1.2,2.1,1.2,2.2-.2Z" transform="translate(-547.399 -625.536)"/>
      </g>
    </g>
    <g id="Group_3562" data-name="Group 3562" transform="translate(1502.699 418.568)">
      <g id="Group_3561" data-name="Group 3561">
        <path id="Path_3519" data-name="Path 3519" class="cls-1" d="M1508.5,451.8c2.4-10.5,4.8-21,7.2-31.4l-2.1-.3a66.412,66.412,0,0,0,6.5,25.8l1.4-1.4a71.649,71.649,0,0,0-17.1-7.3c.1.6.2,1.3.3,1.9a87.869,87.869,0,0,1,23.9-10.5c-.3-.6-.7-1.2-1-1.8-5.9,6.4-11.8,12.8-17.6,19.2-.9,1,.6,2.5,1.5,1.5,5.9-6.4,11.8-12.8,17.6-19.2a1.086,1.086,0,0,0-1-1.8,94.814,94.814,0,0,0-24.4,10.7,1.038,1.038,0,0,0,.3,1.9,65.984,65.984,0,0,1,16.6,7.1,1.014,1.014,0,0,0,1.4-1.4,63.853,63.853,0,0,1-6.2-24.7c-.1-1.1-1.8-1.5-2.1-.3-2.4,10.5-4.8,21-7.2,31.4-.3,1.3,1.7,1.9,2,.6Z" transform="translate(-1503.199 -419.068)"/>
      </g>
    </g>
    <g id="Group_3564" data-name="Group 3564" transform="translate(392.355 574.611)">
      <g id="Group_3563" data-name="Group 3563">
        <path id="Path_3520" data-name="Path 3520" class="cls-3" d="M403.7,600.9a69.6,69.6,0,0,0,3.1-22.7c-.5.3-1.1.6-1.6.9a12.794,12.794,0,0,1,5.8,4.7,13.932,13.932,0,0,1,1.6,3.5c-.3,2.7-1.5,3.9-3.7,3.3-4.4,1.1-10.3,0-14.9,0a14.621,14.621,0,0,1,.5,2A316.855,316.855,0,0,0,423.1,577a18.257,18.257,0,0,0-1.3-1.6c-6.8,8-13.7,16-20.5,24.1-.9,1,.6,2.5,1.5,1.5,6.8-8,13.7-16,20.5-24.1.7-.9-.2-2.3-1.3-1.6-9.3,5.6-18.8,10.8-28.6,15.6a1.074,1.074,0,0,0,.5,2c5.3,0,10.5.1,15.8,0,1.7,0,3.6.1,4.7-1.6,3.2-5.1-4.2-12-8.2-13.8a1.069,1.069,0,0,0-1.6.9,64.418,64.418,0,0,1-3,22.2c-.3,1,1.7,1.6,2.1.3Z" transform="translate(-392.855 -575.111)"/>
      </g>
    </g>
    <g id="Group_3566" data-name="Group 3566" transform="translate(449.613 235.113)">
      <g id="Group_3565" data-name="Group 3565">
        <path id="Path_3521" data-name="Path 3521" class="cls-3" d="M460.6,263.1q.15-13.35.3-26.7a14.621,14.621,0,0,1-2,.5c3.8,5.4,7.6,10.8,11.3,16.2l1.2-1.5a57.849,57.849,0,0,0-20.2-3.3,14.618,14.618,0,0,1,.5,2,75.99,75.99,0,0,1,17.9-8.7l-1.3-1.3a53.694,53.694,0,0,1-7,14.7c-.8,1.1,1.1,2.2,1.8,1.1a55.848,55.848,0,0,0,7.2-15.2c.2-.7-.5-1.6-1.3-1.3a80.479,80.479,0,0,0-18.4,9,1.089,1.089,0,0,0,.5,2,56.755,56.755,0,0,1,19.6,3.2c.8.3,1.7-.8,1.2-1.5-3.8-5.4-7.6-10.8-11.3-16.2a1.089,1.089,0,0,0-2,.5q-.15,13.35-.3,26.7c.2,1.2,2.3,1.2,2.3-.2Z" transform="translate(-450.113 -235.613)"/>
      </g>
    </g>
    <g id="Group_3568" data-name="Group 3568" transform="translate(1477.036 179.261)">
      <g id="Group_3567" data-name="Group 3567">
        <path id="Path_3522" data-name="Path 3522" class="cls-3" d="M1488.1,206.1c0-8.5.1-16.9.1-25.4-.4.3-.9.7-1.3,1a18.741,18.741,0,0,1,11.7,13.2l1.5-1.2a40.167,40.167,0,0,0-21.5-6.5l.3,2.1c7.9-1.5,15.8-3,23.7-4.4l-1.2-1.5a82.893,82.893,0,0,1-12.1,13c-1,.9.5,2.4,1.5,1.5a78.586,78.586,0,0,0,12.4-13.4c.6-.8-.4-1.7-1.2-1.5-7.9,1.5-15.8,3-23.7,4.4-1.2.2-.9,2,.3,2.1a39.394,39.394,0,0,1,20.5,6.2,1.025,1.025,0,0,0,1.5-1.2,21.262,21.262,0,0,0-13.1-14.7,1.044,1.044,0,0,0-1.3,1c0,8.5-.1,16.9-.1,25.4-.1,1.3,2,1.3,2-.1Z" transform="translate(-1477.536 -179.761)"/>
      </g>
    </g>
    <g id="Group_3570" data-name="Group 3570" transform="translate(1727.008 314.608)">
      <g id="Group_3569" data-name="Group 3569">
        <path id="Path_3523" data-name="Path 3523" class="cls-3" d="M1736.6,339.8c1.4-7.8,2.8-15.7,4.2-23.5-.6.1-1.3.2-1.9.3a56.607,56.607,0,0,1,6.7,15.6c.3-.4.7-.9,1-1.3a76.851,76.851,0,0,1-17.9-2.1c.1.6.2,1.3.3,1.9a51.947,51.947,0,0,1,21.1-8.5l-1.2-1.5a70.152,70.152,0,0,1-12.2,13.3c-1,.9.5,2.4,1.5,1.5a78.576,78.576,0,0,0,12.6-13.8c.6-.8-.4-1.7-1.2-1.5a53.543,53.543,0,0,0-21.6,8.7,1.038,1.038,0,0,0,.3,1.9,76.744,76.744,0,0,0,18.5,2.2,1.033,1.033,0,0,0,1-1.3,57.606,57.606,0,0,0-6.9-16.1c-.4-.7-1.8-.7-1.9.3-1.4,7.8-2.8,15.7-4.2,23.5-.5,1.2,1.5,1.7,1.8.4Z" transform="translate(-1727.508 -315.107)"/>
      </g>
    </g>
    <g id="Group_3572" data-name="Group 3572" transform="translate(1578.929 683.301)">
      <g id="Group_3571" data-name="Group 3571">
        <path id="Path_3524" data-name="Path 3524" class="cls-3" d="M1588.6,708.6a94.144,94.144,0,0,1,1.9-23.7c-.6.2-1.2.3-1.8.5a22.24,22.24,0,0,1,8.6,15.6l1-1a34.517,34.517,0,0,1-17.2-4.5c-.1.6-.2,1.3-.3,1.9,6.6-2.3,13.1-4.7,19.7-7l-1.2-1.5c-4.8,6.4-9.7,12.8-14.5,19.2-.8,1.1,1,2.1,1.8,1.1,4.8-6.4,9.7-12.8,14.5-19.2.5-.7-.4-1.8-1.2-1.5-6.6,2.3-13.1,4.7-19.7,7-.8.3-1.1,1.5-.3,1.9a36.792,36.792,0,0,0,18.3,4.8,1.175,1.175,0,0,0,1.1-1,24.408,24.408,0,0,0-9.2-17.1,1.072,1.072,0,0,0-1.8.5,94.343,94.343,0,0,0-2,24.3c.3,1,2.4,1,2.3-.3Z" transform="translate(-1579.429 -683.801)"/>
      </g>
    </g>
    <g id="Group_3574" data-name="Group 3574" transform="translate(384.827 45.184)">
      <g id="Group_3573" data-name="Group 3573">
        <path id="Path_3525" data-name="Path 3525" class="cls-3" d="M394.4,66.6a58.145,58.145,0,0,1,4.4-19.7l-2.1-.3a38.736,38.736,0,0,0,2.9,14.2l1.3-1.3a26,26,0,0,1-13.7-6.4c-.2.6-.3,1.2-.5,1.8a55.786,55.786,0,0,1,17.3-.3c-.1-.6-.2-1.3-.3-1.9-4.2,3.2-8.4,6.4-12.5,9.6-1.1.8,0,2.6,1.1,1.8,4.2-3.2,8.4-6.4,12.5-9.6.6-.5.8-1.8-.3-1.9a56.778,56.778,0,0,0-18.4.3c-.8.1-1,1.3-.5,1.8a27.212,27.212,0,0,0,14.6,6.9c.7.1,1.6-.5,1.3-1.3a39.789,39.789,0,0,1-2.8-13.6c0-1.3-1.6-1.3-2.1-.3a58.7,58.7,0,0,0-4.5,20.2c.2,1.4,2.3,1.4,2.3,0Z" transform="translate(-385.327 -45.684)"/>
      </g>
    </g>
    <g id="Group_3576" data-name="Group 3576" transform="translate(638.548 734.599)">
      <g id="Group_3575" data-name="Group 3575">
        <path id="Path_3526" data-name="Path 3526" class="cls-3" d="M648.1,756.6a61.459,61.459,0,0,1,2.5-20.4c-.6.1-1.3.2-1.9.3,2.4,4.5,4.9,8.9,7.3,13.4l1.2-1.5c-5.6-1.1-11.2-2.3-16.8-3.4v2c7.5-3.1,14.9-6.2,22.4-9.3l-1.2-1.5c-2.7,3.6-5.3,7.3-8,10.9-.8,1.1,1,2.1,1.8,1.1,2.7-3.6,5.3-7.3,8-10.9.5-.7-.4-1.9-1.2-1.5-7.5,3.1-14.9,6.2-22.4,9.3-.9.4-1.1,1.8,0,2,5.6,1.1,11.2,2.3,16.8,3.4a1.058,1.058,0,0,0,1.2-1.5c-2.4-4.5-4.9-8.9-7.3-13.4a1.042,1.042,0,0,0-1.9.3,64.18,64.18,0,0,0-2.6,20.9c.1,1.1,2.2,1.1,2.1-.2Z" transform="translate(-639.048 -735.099)"/>
      </g>
    </g>
    <g id="Group_3578" data-name="Group 3578" transform="translate(645.936 65.291)">
      <g id="Group_3577" data-name="Group 3577">
        <path id="Path_3527" data-name="Path 3527" class="cls-3" d="M655.3,90.6c.8-8,1.6-15.9,2.5-23.9-.6.2-1.2.5-1.8.7a38.831,38.831,0,0,1,9.4,15.7c.3-.4.7-.9,1-1.3-6.3-.4-12.6-.9-18.9-1.3l.3,2.1c6.7-1.8,13.3-3.7,20-5.5l-1.2-1.5a21.692,21.692,0,0,1-6.6,8.1c-1.1.8,0,2.6,1.1,1.8a22.631,22.631,0,0,0,7.3-8.9,1.042,1.042,0,0,0-1.2-1.5c-6.7,1.8-13.3,3.7-20,5.5a1.074,1.074,0,0,0,.3,2.1c6.3.4,12.6.9,18.9,1.3a1.033,1.033,0,0,0,1-1.3,39.637,39.637,0,0,0-9.9-16.6,1.073,1.073,0,0,0-1.8.7c-.8,8-1.6,15.9-2.5,23.9-.1,1.2,2,1.2,2.1-.1Z" transform="translate(-646.436 -65.791)"/>
      </g>
    </g>
    <g id="Group_3580" data-name="Group 3580" transform="translate(1086.999 80.348)">
      <g id="Group_3579" data-name="Group 3579">
        <path id="Path_3528" data-name="Path 3528" class="cls-3" d="M1093,103.1c1.6-7.1,3.2-14.1,4.7-21.2h-2a155.081,155.081,0,0,0,10.7,22.1l1.4-1.4a47.353,47.353,0,0,0-19.3-6.7,14.623,14.623,0,0,1,.5,2,89.689,89.689,0,0,1,24.4-12.1l-1.2-1.5a41.986,41.986,0,0,1-20.1,17.1c-1.2.5-.7,2.5.6,2a44.893,44.893,0,0,0,21.4-18,1.025,1.025,0,0,0-1.2-1.5A88.991,88.991,0,0,0,1088,96.2a1.094,1.094,0,0,0,.5,2,43.635,43.635,0,0,1,18.2,6.4,1.014,1.014,0,0,0,1.4-1.4,153.325,153.325,0,0,1-10.4-21.6c-.3-.9-1.8-1.1-2,0-1.6,7.1-3.2,14.1-4.7,21.2-.4,1,1.7,1.6,2,.3Z" transform="translate(-1087.499 -80.848)"/>
      </g>
    </g>
    <g id="Group_3582" data-name="Group 3582" transform="translate(851.687 48.665)">
      <g id="Group_3581" data-name="Group 3581">
        <path id="Path_3529" data-name="Path 3529" class="cls-3" d="M862.6,60.9c.6-3.5,1.2-7.1,1.9-10.6l-1.5.6a8.553,8.553,0,0,1,4.7,8.1c.6-.2,1.2-.5,1.8-.7a21.45,21.45,0,0,0-16.3-6.2c-1.3.1-1.4,2.1,0,2.1,3.3.1,6.6.2,9.9.2l-1-1a6.855,6.855,0,0,1-2.6,6.5c-1,.9.5,2.3,1.5,1.5a8.7,8.7,0,0,0,3.2-8c-.1-.6-.4-1-1-1-3.3-.1-6.6-.2-9.9-.2v2.1a19.053,19.053,0,0,1,14.8,5.6,1.039,1.039,0,0,0,1.8-.7,10.555,10.555,0,0,0-5.7-9.9,1.01,1.01,0,0,0-1.5.6c-.6,3.5-1.2,7.1-1.9,10.6-.5,1.1,1.5,1.7,1.8.4Z" transform="translate(-852.187 -49.165)"/>
      </g>
    </g>
    <g id="Group_3584" data-name="Group 3584" transform="translate(660.741 449.65)">
      <g id="Group_3583" data-name="Group 3583">
        <path id="Path_3530" data-name="Path 3530" class="cls-3" d="M667.6,470.4c1.6-6.4,3.2-12.8,4.9-19.1h-2a70.545,70.545,0,0,0,5.8,13.2l.6-1.5a18.516,18.516,0,0,1-14.1-2.9c-.1.6-.2,1.3-.3,1.9a26.67,26.67,0,0,1,11.9-1.2l-1-1c-.9,1.1-1.7,2.1-2.6,3.2-1.3.3-.8,2.3.6,2a4.915,4.915,0,0,0,4.1-5.2,1.175,1.175,0,0,0-1-1.1A27.914,27.914,0,0,0,662,460a1.067,1.067,0,0,0-.3,1.9,20.729,20.729,0,0,0,15.7,3.2,1.01,1.01,0,0,0,.6-1.5,62.826,62.826,0,0,1-5.6-12.7,1.041,1.041,0,0,0-2,0c-1.6,6.4-3.2,12.8-4.9,19.1-.3,1.1,1.7,1.7,2.1.4Z" transform="translate(-661.241 -450.15)"/>
      </g>
    </g>
    <g id="Group_3586" data-name="Group 3586" transform="translate(1119.136 548.347)">
      <g id="Group_3585" data-name="Group 3585">
        <path id="Path_3531" data-name="Path 3531" class="cls-3" d="M1129.6,567.6c.1-5.9.2-11.7.2-17.6-.6.2-1.2.5-1.8.7,2.3,3,4.7,6,7,8.9.2-.6.3-1.2.5-1.8a44.484,44.484,0,0,1-15,1.3l.3,2.1a69.36,69.36,0,0,0,19.7-10.1l-1.4-1.4a44,44,0,0,1-11.2,14.1c-1,.9.5,2.3,1.5,1.5a44.673,44.673,0,0,0,11.6-14.6c.4-.8-.5-2.1-1.4-1.4a68.6,68.6,0,0,1-19.2,9.9,1.074,1.074,0,0,0,.3,2.1,47.5,47.5,0,0,0,15.5-1.4,1.157,1.157,0,0,0,.5-1.8c-2.3-3-4.7-6-7-8.9-.6-.8-1.8-.1-1.8.7-.1,5.9-.2,11.7-.2,17.6-.2,1.4,1.9,1.4,1.9.1Z" transform="translate(-1119.636 -548.847)"/>
      </g>
    </g>
  </g>
</svg>
